/* XPM */
static char *jLLQYDp[] = {
/* columns rows colors chars-per-pixel */
"16 16 96 2 ",
"   c #006CBA",
".  c #0070BC",
"X  c #0072BD",
"o  c #0073BD",
"O  c #0074BD",
"+  c #0074BE",
"@  c #0075BE",
"#  c #0076BF",
"$  c #0177BF",
"%  c #0F7EBF",
"&  c #127EBD",
"*  c #117DBE",
"=  c #117EBE",
"-  c #117EBF",
";  c #127EBE",
":  c #127EBF",
">  c #147FBE",
",  c #0077C1",
"<  c #0078C0",
"1  c #0179C0",
"2  c #0078C1",
"3  c #0179C1",
"4  c #0278C0",
"5  c #0279C0",
"6  c #037AC0",
"7  c #037AC1",
"8  c #037BC1",
"9  c #0078C2",
"0  c #0079C2",
"q  c #0179C2",
"w  c #007AC2",
"e  c #017AC2",
"r  c #027AC2",
"t  c #037AC2",
"y  c #037BC2",
"u  c #047AC1",
"i  c #047BC1",
"p  c #057BC1",
"a  c #0B7CC0",
"s  c #0A7EC3",
"d  c #0C7DC0",
"f  c #0D7EC0",
"g  c #117EC0",
"h  c #1880BE",
"j  c #2083BE",
"k  c #2084BF",
"l  c #2685BD",
"z  c #2785BD",
"x  c #2585BE",
"c  c #2986BE",
"v  c #2C87BE",
"b  c #378BBA",
"n  c #3A8BBC",
"m  c #3D8EBD",
"M  c #418FBC",
"N  c #0F81C3",
"B  c #1081C4",
"V  c #1282C4",
"C  c #1383C5",
"Z  c #1D85C5",
"A  c #1D87C6",
"S  c #1E88C7",
"D  c #2187C7",
"F  c #238BC8",
"G  c #288DC9",
"H  c #298EC9",
"J  c #52A4D4",
"K  c #5DAAD7",
"L  c #63ACD8",
"P  c #6AB0D9",
"I  c #75B6DC",
"U  c #75B6DD",
"Y  c #79B8DD",
"T  c #7FBBDF",
"R  c #82BDE0",
"E  c #87BFE1",
"W  c #87C0E1",
"Q  c #88C0E1",
"!  c #88C1E2",
"~  c #89C1E2",
"^  c #92C5E3",
"/  c #A2CEE6",
"(  c #A5CDE7",
")  c #A7D0E9",
"_  c #A8D1E9",
"`  c #ACD3E9",
"'  c #B0D5EB",
"]  c #BFDDEE",
"[  c #C1DEEF",
"{  c #C6E1F0",
"}  c #DEEDF5",
"|  c #DDEDF6",
" . c #E0EEF6",
".. c #E8F3F8",
"X. c #E8F3F9",
"o. c None",
/* pixels */
"o.o.o.o.o.o.l > ; l o.o.o.o.o.o.",
"o.o.o.o.; r r r r r i f o.o.o.o.",
"o.o.o.r r i p p i i i i , m o.o.",
"o.o.r r i $ p p i r $ p i r o.o.",
"o.k r $ A / N r @ Y L @ i r ; o.",
"o.r i r H } C $ @ _ Q X i i r o.",
"n r i $ H } V r @ _ E X i i r l ",
"g i i , F X.Z X   ( Q X i i r f ",
"; i i i r { ] J P ..T X i i i f ",
"b r i i $ A ^ ` I [ R @ i i r c ",
"o.r i i p r X D Q } ) @ i i r o.",
"o.h r i i i y a V ' Q X i r ; o.",
"o.o.r i p p p p @ U K @ i , o.o.",
"o.o.o.i r p p p p @ r r r M o.o.",
"o.o.o.o.; r r r p r r a o.o.o.o.",
"o.o.o.o.o.o.c h ; c o.o.o.o.o.o."
};
