/* XPM */
static char *Nh3gLyE[] = {
/* columns rows colors chars-per-pixel */
"64 64 78 1 ",
"  c #1A77AF",
". c #1F78AC",
"X c #006EBB",
"o c #0776B5",
"O c #0074BE",
"+ c #0479BE",
"@ c #0A7BBE",
"# c #1478B3",
"$ c #1C79B1",
"% c #127EBE",
"& c #187FBE",
"* c #2279AC",
"= c #307FB2",
"- c #0077C0",
"; c #057BC1",
": c #0A7CC1",
"> c #117FC1",
", c #1580BF",
"< c #1D81BD",
"1 c #2483BC",
"2 c #2B85BC",
"3 c #2C88BD",
"4 c #3383B3",
"5 c #3086BC",
"6 c #3388BC",
"7 c #398ABB",
"8 c #498EB7",
"9 c #4792BD",
"0 c #4C92BD",
"q c #5194BB",
"w c #1380C1",
"e c #1C84C3",
"r c #2384C0",
"t c #2F87C1",
"y c #2389C6",
"u c #2B88C3",
"i c #238BC9",
"p c #2D8EC9",
"a c #338AC1",
"s c #3C91C3",
"d c #3392CA",
"f c #4392C3",
"g c #4A95C2",
"h c #449BCF",
"j c #499BCF",
"k c #53A3D2",
"l c #5BA7D4",
"z c #69ADD6",
"x c #6AB0D9",
"c c #73B4DA",
"v c #7AB6DA",
"b c #7CB8DC",
"n c #8BBFDD",
"m c #88BFE0",
"M c #8CC0DF",
"N c #8EC3E2",
"B c #91C4E2",
"V c #98C7E2",
"C c #9BC8E5",
"Z c #A2CDE5",
"A c #ABD3E9",
"S c #B1D5EA",
"D c #B7D8ED",
"F c #BBDAED",
"G c #C3DEEF",
"H c #C6E0EE",
"J c #CDE5F2",
"K c #D0E6F3",
"L c #DCEBF4",
"P c #E0EEF5",
"I c #E5F0F5",
"U c #E8F2F7",
"Y c #E6F2F9",
"T c #EBF4F8",
"R c #F1F7FA",
"E c #F5F9FC",
"W c #FFFFFF",
"Q c None",
/* pixels */
"QQQQQQQQQQQQQQQQQQQQQQQQQQQQQf ++#6QQQQQQQQQQQQQQQQQQQQQQQQQQQQQ",
"QQQQQQQQQQQQQQQQQQQQQQQQQ61w%>;;;@ww,15QQQQQQQQQQQQQQQQQQQQQQQQQ",
"QQQQQQQQQQQQQQQQQQQQQQ1>:;;;+:;;;;;;;;;:><QQQQQQQQQQQQQQQQQQQQQQ",
"QQQQQQQQQQQQQQQQQQQ5,:;;:;;;;;;;;;;;;;;:;;:%2QQQQQQQQQQQQQQQQQQQ",
"QQQQQQQQQQQQQQQQQ5@;;;;;;;;;;;;;;;;;;;;;;;;:;@<QQQQQQQQQQQQQQQQQ",
"QQQQQQQQQQQQQQQQ@;@;;;;;;;;;;;;;;;;;;;;;;;;;;@@+6QQQQQQQQQQQQQQQ",
"QQQQQQQQQQQQQQ2;:;;;;;;;;;;;;;;;;;;;;;;;;;;;;;;:@<QQQQQQQQQQQQQQ",
"QQQQQQQQQQQQQ%+:;;;;;;;;;;;;;;;;;;;;;;;;;;;;;;;;:;:QQQQQQQQQQQQQ",
"QQQQQQQQQQQQ:@;;;;;;;;;;;;;;;;;;;;;;;;;;;;;;;;;;;;@:4QQQQQQQQQQQ",
"QQQQQQQQQQQ@@;;;;;;;;;;;;;;;;;;;;;;;;;;;;;;;;;;;;;;;+aQQQQQQQQQQ",
"QQQQQQQQQQ:@;;;;;;+;;;;;;;;;;;;;;;;;;;;;;;;;;;;;;;;;@+sQQQQQQQQQ",
"QQQQQQQQQO@;;;;;;;;;;;;;;@;;;;;;;;;;;;;;;;;;;;;;;;;;;@+4QQQQQQQQ",
"QQQQQQQQw;;;;;;;;;;;;;;;;;;;;;;;;:;;;;;;;;;;;;;;;;;;;;;;QQQQQQQQ",
"QQQQQQQ%;;;;;;;;;;;;;;;;;;;;;+;;;;;;;;;;;;;;;;;;;;;;;;;:@QQQQQQQ",
"QQQQQQfO:;;;;;;;;;;;;;;;;;;;;;;;;;;;;;;;;;;;;;;;;;;;;;;;;<QQQQQQ",
"QQQQQQ;;;;;;;;;;;;;;;+;;;;;;;;;;;;;;;;;;-;;;;;;;;;;;;;;;:-qQQQQQ",
"QQQQQ<+:;;;;;;;;;;;:::>:;;;;;;;;;;;;;;::ww;;;;;;;;;;;;;;;@@QQQQQ",
"QQQQQ+;;;;;;;;;+;:OvPLLV+;;;;;;;;;;;OmPLKC;;;;;;;;;;;;;;;;O7QQQQ",
"QQQQ,@;;;;;;;;;;;;ONWWWD++;;;;;;;;;;OBWWWGO;;;;;;;;;;;;;;;@+QQQQ",
"QQQQ+;;;;;;;;;;;;;OnWWWSO;;;;;;;;;;;ONWWWFO;;;;;;;;;;;;;;;;;9QQQ",
"QQQa+;;;;;;;;;;;;;OmWWWSO;;;;;;;@;;;ONWWWF+;;;;;;;;;;;;;;;;@%QQQ",
"QQQ:;;;;;;:;;;+;;:OnWWWS+;;;;;;;;;;;OBWWWFO;;;;;;;;;;;;;;;;;+QQQ",
"QQ8;;;;;;;;;;;;;;;OnWWWSO;;;;;;;;;;;ONWWWF;;;;;;;;;;;;;;;;;;;3QQ",
"QQ1;;;;;;;;;;;;;;;OnWWWAO;;;;;;;;;;;ONWWWFO;;;;;;;;;;;;;;;;;;%QQ",
"QQ%;;;;;;;;;;;;;;;XnWWWSO;;;;;;;;;;;ONWWWFO;;;;;;;;;;;;;;;;;;+QQ",
"QQ::;;;;;;;;;:;;;;OnWWWSO;;;;;;;;;;;ONWWWF+;;;;;;;;;;;;;;;;;;;0Q",
"Q8;;;;;;;;;;;;;;;;OnWWWSO;;;;;;;;;;;ONWWWF--;;;;;;;;;;;;;;;;;;2Q",
"Q6;;;;;:;;;;;;;;;;OnWWWSO;;+;;;;;;;;ONWWWF;;;;;;;;;;+;;;;;;;;;<Q",
"Qu+;;;;;;;;;;;;;;;OnWWWSO;;;;;;;;;;;ONWWWF+;;;;@;;;;;;;;;;;;;;wQ",
"Qr;;;;;;;;;;;;;;;;OmWWWJ;;;;;;;@;;;;ONWWWF+;;;;;;;;;;;;;;;;;;;wQ",
"Q@;;;;;;;;;;;;;;;;OvWWWRy++;;;;;;;;;ONWWWF+;;;;;;;;;;;;;;;;;;;;.",
"Q;;;;;;;;;;;;;;;;;OkWWWWcO;;;;;;;;;;ONWWWD+;;;;;;;;;;;;;;;;;;;@+",
"Q+;;;;;;;;;;;;;;;;;yTWWWIyO;;;;;;;;-XNWWWFO;;;;;;;;;+;;;;;;;;;;o",
"Q%;+;;;;;;;;;;;;;;;OZWWWWKpOO-+OOOOwzPWWWF;;;;;;;;;;;;;;;;;;;;:*",
"Qr:;;;;;;;+;;;;;;;;OdEWWWWTBjyyipkBLWWWWWF-;;;;;;;;;;;;;;;;;;;wQ",
"Qe@;;;;;;;:;;;;;;;;;OcWWWWWWWRTTEWWWWWWWWFO;;;;;;;;;;;;;;;;;;;%Q",
"Q5;;;;;;;;;;;;;;;;;;;OcRWWWWWWWWWWWWGGWWWF+;;;;;;;;;;;;;;;;;;;eQ",
"QQ;;;;;;;;;;;;;;;;;;;+OdZIWWWWWWWYSl+nWWWF+;;;;;+;;;;;;;;;;;;;2Q",
"QQ:;;;;;;;;;;;;;;;;;;;;+OejcvvbxsiOOXNWWWFO;;+;;;;;;;;;;;;;;;;0Q",
"QQ>:;;;;;;;;;;;;;;;;;;;;;OOOOOOO-;;OONWWWFO;;;;;;;;;;;;;;;;;;:QQ",
"QQ1;;;;;;;;;;;;;;;;;;;;;;;;;;;;;;:;:+NWWWF+;;;;;;;;;;;;;;;;;;%QQ",
"QQq;;;;;;;;;;;;:;;;;;;;;;;;;;+iJKKKKJUWWWES:;;;;;;;;;;;;;;;;;5QQ",
"QQQ@:;;;;;;;;;;+;;;;;;;;;;;;;OpWWWWWWWWWWWU:-;;;;;;;;;;;;;;:+QQQ",
"QQQt;;;;;;;;;;;;;;;;;;;;;;;;;;iSDDDDSLWWWUC:;;;;;;;;;;;;;;;;,QQQ",
"QQQQ+;;;;;;;;:+;;;;;+;;;;;+;;;;+O-O-XNWWWAO-;;;;;;;;;;;;;;;O0QQQ",
"QQQQ<+;;;;;;;;;;;;;;;;;;;;;;;;;;;;;;ONWWWA-;;;;;:;;;;;;;;;;@QQQQ",
"QQQQQ;;;;;;;;;;;;;;;;;;;;;;;;;;;;;;;ONWWWA-;;;;;;;;;;;;;;;;6QQQQ",
"QQQQQ1+;;;;;;;;;;;;;;;;;;;;;;;;;;;;;OmWWWAO;;;;;@;;;;;;;;:%QQQQQ",
"QQQQQQ;:;;;;;;;;;;;;:;;;;;;;;;;;;;;;ONWWWA-;;;;;;;;;;;;;:;QQQQQQ",
"QQQQQQg+;;;;;;;;;;;;;;;;;;;;;;;;;;;;OBWWWSO;;;;;;;;;;;;;;<QQQQQQ",
"QQQQQQQ%;;;;;;;;;;;;;;;;;;;;;;;;;;;;OcJJJB;;;;;;;;;;;;;@@QQQQQQQ",
"QQQQQQQQ>;;;;;;;;;;;;;;;;;;;;;;;;:;;;;;;::;;;;;;;;;;;;+:QQQQQQQQ",
"QQQQQQQQQ+@;;;;;;;;;;;;;;;;;;;;;;;;;;;;+;;;;;;;;;;;;;:O4QQQQQQQQ",
"QQQQQQQQQQ:@;;;;;;;;;;;;;;;;:;;;;;;;;;;;;;;;;;;;;;;;@+sQQQQQQQQQ",
"QQQQQQQQQQQ@;;;;;;;;;;;;;;;;;;;;;;;;;;;;;;;;;;;;;;;:+fQQQQQQQQQQ",
"QQQQQQQQQQQQ:::;;;;;;;;;;;;;;;;;;;;;;;;;;;;;;;;;;;;;4QQQQQQQQQQQ",
"QQQQQQQQQQQQQ%;:;;;;;;;;;;;;;;;;;;;;;;;;;;;;;;;;;%@QQQQQQQQQQQQQ",
"QQQQQQQQQQQQQQ3+@;;;;;;;;;;;;;;;;;;;;;;;;;;;;;;:@wQQQQQQQQQQQQQQ",
"QQQQQQQQQQQQQQQQ%;::;;;;;;;;;;;;;;;;;:;;;;;;;:;@3QQQQQQQQQQQQQQQ",
"QQQQQQQQQQQQQQQQQ4@;;;;;;;;;;;;;;;;;;;;;;;;:;:<QQQQQQQQQQQQQQQQQ",
"QQQQQQQQQQQQQQQQQQQ4&:;:;;;;;;;;;;;;;;;:;;@%2QQQQQQQQQQQQQQQQQQQ",
"QQQQQQQQQQQQQQQQQQQQQQ3%@;;;@;;;;;;@;;;:>3QQQQQQQQQQQQQQQQQQQQQQ",
"QQQQQQQQQQQQQQQQQQQQQQQQQ73r%w:;;;>:<rsQQQQQQQQQQQQQQQQQQQQQQQQQ",
"QQQQQQQQQQQQQQQQQQQQQQQQQQQQQQ*+; QQQQQQQQQQQQQQQQQQQQQQQQQQQQQQ"
};
