/* XPM */
static char *je2zpbB[] = {
/* columns rows colors chars-per-pixel */
"32 32 181 2 ",
"   c #0068B8",
".  c #0071BC",
"X  c #0072BD",
"o  c #0073BD",
"O  c #0074BE",
"+  c #0075BE",
"@  c #0076BF",
"#  c #0077BF",
"$  c #0178BF",
"%  c #0679BE",
"&  c #0679BF",
"*  c #0779BF",
"=  c #0E7AB8",
"-  c #0D7BBB",
";  c #0E7BBB",
":  c #097ABC",
">  c #0A7ABC",
",  c #0C7BBC",
"<  c #0B7CBF",
"1  c #0C7CBE",
"2  c #0E7DBF",
"3  c #0F7DBF",
"4  c #107AB7",
"5  c #107BBA",
"6  c #107DBF",
"7  c #117EBE",
"8  c #127EBF",
"9  c #1A7FBA",
"0  c #0078C0",
"q  c #0079C0",
"w  c #0179C0",
"e  c #0078C1",
"r  c #0079C1",
"t  c #0279C0",
"y  c #0379C0",
"u  c #0279C1",
"i  c #007AC1",
"p  c #017AC1",
"a  c #027AC0",
"s  c #037AC0",
"d  c #027AC1",
"f  c #037AC1",
"g  c #037BC1",
"h  c #0079C2",
"j  c #007AC2",
"k  c #017BC2",
"l  c #027AC2",
"z  c #037AC2",
"x  c #027BC2",
"c  c #037BC2",
"v  c #027BC3",
"b  c #037BC3",
"n  c #047AC0",
"m  c #057AC0",
"M  c #057BC0",
"N  c #047AC1",
"B  c #057AC1",
"V  c #047BC1",
"C  c #057BC1",
"Z  c #067BC0",
"A  c #077BC0",
"S  c #067BC1",
"D  c #077BC1",
"F  c #047BC2",
"G  c #057BC2",
"H  c #037CC3",
"J  c #067CC1",
"K  c #077CC1",
"L  c #057CC2",
"P  c #047CC3",
"I  c #067CC3",
"U  c #087BC0",
"Y  c #087CC0",
"T  c #097CC0",
"R  c #087CC1",
"E  c #097CC1",
"W  c #0A7DC1",
"Q  c #087CC2",
"!  c #0D7DC0",
"~  c #0D7DC1",
"^  c #0E7DC0",
"/  c #0C7EC2",
"(  c #0D7EC2",
")  c #0E7FC2",
"_  c #1780BE",
"`  c #1780BF",
"'  c #1C80BB",
"]  c #1880BF",
"[  c #2281B8",
"{  c #2382B8",
"}  c #2784BB",
"|  c #2383BC",
" . c #2283BE",
".. c #2384BD",
"X. c #2984BA",
"o. c #2A85BB",
"O. c #2B86BA",
"+. c #2885BF",
"@. c #2A86BE",
"#. c #2C88BF",
"$. c #3785B3",
"%. c #3A89B6",
"&. c #3186B9",
"*. c #3789BA",
"=. c #338BBE",
"-. c #3E8EBE",
";. c #428CB7",
":. c #478EB8",
">. c #448FBD",
",. c #4993BF",
"<. c #1480C0",
"1. c #1181C4",
"2. c #1882C0",
"3. c #1A83C1",
"4. c #238BC8",
"5. c #258BC8",
"6. c #268CC9",
"7. c #2E8EC9",
"8. c #3089C0",
"9. c #3A90C1",
"0. c #3E90C0",
"q. c #3694CC",
"w. c #3795CD",
"e. c #3996CD",
"r. c #3B96CE",
"t. c #3C97CE",
"y. c #4B94C2",
"u. c #4695CD",
"i. c #469DCF",
"p. c #499CD0",
"a. c #4B9ED0",
"s. c #4B9FD1",
"d. c #4B9FD2",
"f. c #4C9FD1",
"g. c #4EA0D1",
"h. c #4DA0D2",
"j. c #4EA0D2",
"k. c #4FA1D3",
"l. c #50A2D3",
"z. c #5CA9D6",
"x. c #61ABD6",
"c. c #63ACD7",
"v. c #64ADD7",
"b. c #67AED8",
"n. c #68ADD9",
"m. c #70B4DB",
"M. c #74B6DC",
"N. c #78B8DE",
"B. c #7CB9DC",
"V. c #7DB9DD",
"C. c #80BBDF",
"Z. c #83BDDF",
"A. c #90C3E1",
"S. c #93C5E3",
"D. c #9DCAE5",
"F. c #9ECCE6",
"G. c #B4D7EA",
"H. c #BEDCED",
"J. c #D1E6F2",
"K. c #D0E6F3",
"L. c #D2E7F2",
"P. c #D2E7F3",
"I. c #D4E7F3",
"U. c #D1E6F4",
"Y. c #D6E8F4",
"T. c #D7E9F4",
"R. c #D7E9F5",
"E. c #D9EAF5",
"W. c #DAEAF4",
"Q. c #DCEBF5",
"!. c #DCECF5",
"~. c #DFEEF6",
"^. c #E1EFF6",
"/. c #E2EFF7",
"(. c #E9F3F9",
"). c #F1F7FA",
"_. c #F0F7FB",
"`. c #FCFDFE",
"'. c #FFFFFE",
"]. c gray100",
"[. c None",
/* pixels */
"[.[.[.[.[.[.[.[.[.[.[.[.[.[.#.; > @.[.[.[.[.[.[.[.[.[.[.[.[.[.[.",
"[.[.[.[.[.[.[.[.[.[.O.8 W F x n n x n n 1.' [.[.[.[.[.[.[.[.[.[.",
"[.[.[.[.[.[.[.[.[ n v n x F F n W F n F * 1.* ' [.[.[.[.[.[.[.[.",
"[.[.[.[.[.[.[.8 v I n n n F F W n F F F F F F F ( [.[.[.[.[.[.[.",
"[.[.[.[.[.[.& x I n F W F n F F n F F W n n F * F $ -.[.[.[.[.[.",
"[.[.[.[.[.n F n n n F F F n W F F F F F F F F * F F x %.[.[.[.[.",
"[.[.[.[.* F F F n W F n F W n n W F F n F F F F F * F $ [.[.[.[.",
"[.[.[.` x F * F n n o + n n W F n n & o + > F F F F n x ( [.[.[.",
"[.[.;.x g g F F $ 5.B.x.n n I F n x 6.B.v.$ g g * F 1.$ g &.[.[.",
"[.[.* g g $ * g $ g.'.I.I n n F n + l.'.T.1.$ $ * F * F g $ [.[.",
"[.[.x F * 1.g $ + s.'.P.D n F n n 0 h.'.T.1.$ 1.1.g F F g g >.[.",
"[. .g * F g g 1.+ s.'.P.n x W I n o h.'.T.$ $ $ $ g * g F g _ [.",
"[.( F * F F F * + s.'.K.n n D n n 0 f.`.T.1.$ 1.g g 1.* F F F [.",
"[.n F F F * F g + a.'.K.n n n n n 0 f.'.T.$ $ $ F g $ F F * g [.",
"8.n F * F $ g * + f.'.E.W x n D n o f.'.T.1.$ $ * F * F F F g 0.",
"> F F F * 1.g F + e.'.'.7.0 n n n o p.'.P.1.$ 1.* F F F * F g ; ",
": g * F * F g $ x ( Q.'.G.( o + 0 0 V.'.R.~ x n W n n F F n F 4 ",
"+.$ 1.F F g g 1.n o n.'.'.!.S.C.D./.'.'.R.D + n F n n W F W x 9.",
"[.g g g F * F * n n 0 v.!.'.'.'.'.H.A.'.R.D n n F n n F F F x [.",
"[.1.g g $ 1.g g F F n + ( w.i.w.)   u.'.Y.D n n F W F F F n n [.",
"[. .x F F F * g F n n F $ $ o t.N.m.F.'.).r.0 n F F W F W x 9 [.",
"[.[.x * * F 1.$ F W F F $ 1.+ C.)./.(.'.'.n.0 n F n n F n x y.[.",
"[.[.* F F W F * * F W n F * $ 1.Q 0 f.'.U.n n I W n n F n n [.[.",
"[.[.:.$ F * F F F F F n F g $ g n o f.'.U.n n n F n n n x *.[.[.",
"[.[.[.3.x F F * F * 1.g F * $ g n o f.'.U.W x n F F n g ( [.[.[.",
"[.[.[.[.& x F F F * $ g $ 1.1.* n 0 5.M.z.n n W n W x + [.[.[.[.",
"[.[.[.[.[.F $ F F F * F g F * F F F x o + n F F n x x $.[.[.[.[.",
"[.[.[.[.[.[.* F * F F F g g g F n W W F F F n I I x y.[.[.[.[.[.",
"[.[.[.[.[.[.[.` g F F & F F W F n n F F n n I v ( [.[.[.[.[.[.[.",
"[.[.[.[.[.[.[.[.{ W x x F n n F F I W F n x n ' [.[.[.[.[.[.[.[.",
"[.[.[.[.[.[.[.[.[.[.X.] * F x F n I x n <.X.[.[.[.[.[.[.[.[.[.[.",
"[.[.[.[.[.[.[.[.[.[.[.[.[.[.8.5 , o.[.[.[.[.[.[.[.[.[.[.[.[.[.[."
};
